<?xml version="1.0" encoding="UTF-8" standalone="no"?>
<!-- Created with Inkscape (http://www.inkscape.org/) -->

<svg
   xmlns:dc="http://purl.org/dc/elements/1.1/"
   xmlns:cc="http://creativecommons.org/ns#"
   xmlns:rdf="http://www.w3.org/1999/02/22-rdf-syntax-ns#"
   xmlns:svg="http://www.w3.org/2000/svg"
   xmlns="http://www.w3.org/2000/svg"
   xmlns:sodipodi="http://sodipodi.sourceforge.net/DTD/sodipodi-0.dtd"
   xmlns:inkscape="http://www.inkscape.org/namespaces/inkscape"
   width="210mm"
   height="297mm"
   viewBox="0 0 210 297"
   version="1.1"
   id="svg4911"
   sodipodi:docname="logo.svg"
   inkscape:version="0.92.1 r15371">
  <defs
     id="defs4905">
    <inkscape:perspective
       sodipodi:type="inkscape:persp3d"
       inkscape:vp_x="12.294398 : 190.46132 : 1"
       inkscape:vp_y="0 : 1000 : 0"
       inkscape:vp_z="210 : 148.5 : 1"
       inkscape:persp3d-origin="105 : 99 : 1"
       id="perspective5552" />
  </defs>
  <sodipodi:namedview
     id="base"
     pagecolor="#ffffff"
     bordercolor="#666666"
     borderopacity="1.0"
     inkscape:pageopacity="0.0"
     inkscape:pageshadow="2"
     inkscape:zoom="2.8"
     inkscape:cx="464.36589"
     inkscape:cy="923.77912"
     inkscape:document-units="mm"
     inkscape:current-layer="layer1"
     showgrid="false"
     inkscape:window-width="1280"
     inkscape:window-height="962"
     inkscape:window-x="-8"
     inkscape:window-y="-8"
     inkscape:window-maximized="1" />
  <metadata
     id="metadata4908">
    <rdf:RDF>
      <cc:Work
         rdf:about="">
        <dc:format>image/svg+xml</dc:format>
        <dc:type
           rdf:resource="http://purl.org/dc/dcmitype/StillImage" />
      </cc:Work>
    </rdf:RDF>
  </metadata>
  <g
     inkscape:label="Layer 1"
     inkscape:groupmode="layer"
     id="layer1">
    <path
       style="fill:none;stroke:#000000;stroke-width:0.5;stroke-linecap:butt;stroke-linejoin:miter;stroke-miterlimit:4;stroke-dasharray:none;stroke-opacity:1;fill-opacity:1"
       d="m 13.317789,12.660218 c 3.049779,-3.7016454 11.905111,-4.6150491 14.37961,-0.50652 2.952089,4.901478 -11.948156,10.273115 -8.556096,14.881045 1.92511,2.615145 6.74564,-3.836466 9.506799,-2.127384 1.329189,0.822701 2.034928,3.28201 1.124565,4.552751 -3.254521,4.542681 -13.685581,6.131526 -16.703666,1.428419 -3.010813,-4.691775 12.016629,-10.456092 8.237794,-14.554648 -1.718094,-1.863478 -4.662612,4.389185 -6.899239,3.19677 -2.046151,-1.090845 -2.564211,-5.080802 -1.089767,-6.870433 z"
       id="path5458"
       inkscape:connector-curvature="0"
       sodipodi:nodetypes="aaaaaaaaa" />
    <path
       style="fill:none;stroke:#000000;stroke-width:0.5;stroke-linecap:butt;stroke-linejoin:miter;stroke-miterlimit:4;stroke-dasharray:none;stroke-opacity:1;fill-opacity:1"
       d="m 32.616513,11.906492 c -1.534877,3.29717 4.543972,5.862758 5.67305,9.31999 1.241467,3.801333 -1.852048,9.16414 1.013041,11.953908 1.672165,1.628208 5.228009,1.935766 6.990004,0.405221 3.095196,-2.688622 -0.597344,-8.487469 1.013043,-12.257824 1.860395,-4.355765 11.409855,-6.338175 9.421295,-10.636959 -1.375493,-2.9734548 -7.10888,-1.627096 -9.826512,0.202622 -2.622454,1.765594 -0.586984,8.681416 -3.748271,8.712157 -3.188564,0.03105 -1.146706,-7.194067 -3.950866,-8.712157 -1.952922,-1.0572716 -5.647557,-1.0002452 -6.584784,1.013042 z"
       id="path5492"
       inkscape:connector-curvature="0"
       sodipodi:nodetypes="aaaaaaaaaa" />
    <path
       style="fill:none;stroke:#000000;stroke-width:0.5;stroke-linecap:butt;stroke-linejoin:miter;stroke-miterlimit:4;stroke-dasharray:none;stroke-opacity:1;fill-opacity:1"
       d="M 55.696919,31.949577 C 51.746838,26.042178 55.349297,15.723556 60.88896,11.272385 62.522795,9.9595708 65.390155,9.9900565 67.174132,11.0902 c 3.42237,2.11049 1.086561,11.15658 5.100991,10.930679 3.901686,-0.219539 0.60743,-8.769306 3.734704,-11.112851 3.063811,-2.2961017 8.493644,-2.8550327 11.477205,-0.455451 6.20047,4.986996 9.807629,17.865404 4.190078,23.500974 -1.740955,1.746487 -5.555864,0.480762 -7.28721,-1.275235 -4.037249,-4.094921 2.951336,-16.161315 -2.732607,-17.033659 -4.362045,-0.669463 -2.224034,9.431419 -5.920911,11.841567 -1.57871,1.029325 -4.066601,1.299474 -5.64742,0.273263 -3.443036,-2.235028 -0.369948,-11.78337 -4.463406,-11.477207 -5.648725,0.422508 0.935403,13.372266 -3.734606,16.578193 -1.720549,1.181141 -5.034002,0.823923 -6.194031,-0.910896 z"
       id="path5494"
       inkscape:connector-curvature="0"
       sodipodi:nodetypes="aaaaaaaaaaaaaa" />
    <path
       style="fill:none;stroke:#000000;stroke-width:0.5;stroke-linecap:butt;stroke-linejoin:miter;stroke-miterlimit:4;stroke-dasharray:none;stroke-opacity:1;fill-opacity:1"
       d="m 98.726355,30.361771 c -3.95008,-5.90741 -0.347615,-16.226025 5.192055,-20.6772067 1.63385,-1.312808 4.50112,-1.2823215 6.28512,-0.182171 3.42236,2.1104857 1.08668,11.1565767 5.1009,10.9306687 3.90177,-0.219533 0.60752,-8.769312 3.73484,-11.1128574 3.06383,-2.2960944 8.49362,-2.8550234 11.4772,-0.4554432 6.20051,4.9870056 9.80757,17.8654006 4.19,23.5009716 -1.74092,1.746494 -5.55575,0.480767 -7.28708,-1.27523 -4.03731,-4.094926 2.95125,-16.161304 -2.7327,-17.033665 -4.36207,-0.669448 -2.22399,9.431409 -5.92093,11.841567 -1.57865,1.029323 -4.06662,1.299463 -5.64743,0.273275 -3.44292,-2.235035 -0.3699,-11.783383 -4.46336,-11.477218 -5.64876,0.422509 0.93545,13.372274 -3.73454,16.578195 -1.72065,1.181142 -5.034003,0.823916 -6.194075,-0.910886 z"
       id="path5494-9"
       inkscape:connector-curvature="0"
       sodipodi:nodetypes="aaaaaaaaaaaaaa" />
    <path
       style="fill:none;stroke:#000000;stroke-width:0.5;stroke-linecap:butt;stroke-linejoin:miter;stroke-miterlimit:4;stroke-dasharray:none;stroke-opacity:1;fill-opacity:1"
       d="m 152.35604,33.888541 c -3.68018,-0.115839 -7.77851,-1.762974 -9.99475,-4.703367 -2.94744,-3.910795 -4.1392,-9.942795 -2.35153,-14.502056 1.24006,-3.163076 4.80327,-5.2223434 8.03489,-6.2711571 3.5437,-1.1501603 8.26424,-1.9394815 11.17046,0.391946 2.84247,2.2803451 2.31549,6.9636661 2.74361,10.5825871 0.42211,3.568564 1.85089,7.825044 -0.19586,10.778549 -1.92099,2.771735 -6.03624,3.829598 -9.40682,3.723498 z m -3.66315,-15.576404 c -0.014,1.878993 1.92336,3.596105 3.67592,4.273725 2.88607,0.914125 5.22815,-2.933712 4.68943,-4.800164 -0.63622,-1.914742 -3.30237,-3.279126 -5.29132,-2.939606 -1.52222,0.259873 -3.06235,1.921792 -3.07403,3.466045 z"
       id="path5511"
       inkscape:connector-curvature="0"
       sodipodi:nodetypes="aaaaaaaaaccaa" />
    <path
       style="fill:none;stroke:#000000;stroke-width:0.5;stroke-linecap:butt;stroke-linejoin:miter;stroke-miterlimit:4;stroke-dasharray:none;stroke-opacity:1;fill-opacity:1"
       d="m 161.75671,7.4981248 c 0.19758,-2.147645 4.40428,-2.5466473 6.29274,-1.5047828 2.10849,1.1633292 3.92623,5.040743 2.32545,6.839926 -0.86789,0.975566 -2.83917,0.02932 -3.83039,-0.820793 -0.77771,-0.667134 -0.38969,-2.1288027 -1.09427,-2.8727654 -0.92652,-0.9781788 -3.81702,-0.2999422 -3.69353,-1.6415848 z"
       id="path5513"
       inkscape:connector-curvature="0"
       sodipodi:nodetypes="aaaaaa" />
    <path
       style="fill:none;stroke:#000000;stroke-width:0.5;stroke-linecap:butt;stroke-linejoin:miter;stroke-miterlimit:4;stroke-dasharray:none;stroke-opacity:1;fill-opacity:1"
       d="m 189.97551,12.02574 c -0.92487,2.30388 -5.70081,1.604773 -6.26893,4.021529 -0.86187,3.666282 6.96923,6.120197 5.79585,9.69899 -1.5194,4.634105 -9.05053,7.709072 -13.48399,5.677467 -1.28081,-0.586935 -1.9146,-2.75317 -1.30105,-4.021535 1.0809,-2.234968 6.08589,-0.285545 6.97851,-2.602177 1.72448,-4.475754 -8.60879,-8.407884 -6.62371,-12.774274 1.99859,-4.3961106 9.95204,-5.9437673 14.07539,-3.4301418 1.0043,0.6122404 1.2661,2.3386028 0.82793,3.4301418 z"
       id="path5515"
       inkscape:connector-curvature="0"
       sodipodi:nodetypes="aaaaaaaaa" />
    <path
       style="fill:none;stroke:#000000;stroke-width:0.5;stroke-linecap:butt;stroke-linejoin:miter;stroke-miterlimit:4;stroke-dasharray:none;stroke-opacity:1;fill-opacity:1"
       d="m 14.892935,52.385917 c -3.0198,-3.500475 -1.331494,-13.008272 3.267547,-13.478712 4.831758,-0.494248 8.881184,9.103606 6.228805,13.172371 -0.706566,1.083894 -2.831171,0.655222 -3.880241,-0.102118 -1.056289,-0.762538 -0.286706,-2.892331 -1.327436,-3.675999 -0.408751,-0.307811 -1.136501,-0.427175 -1.531677,-0.102109 -1.033555,0.850174 0.453051,3.053599 -0.510539,3.982336 -0.541392,0.521792 -1.755309,0.773557 -2.246459,0.204231 z m 3.573894,-7.76048 c -0.777635,-0.0043 -1.295005,1.463643 -0.918993,2.144354 0.316548,0.5731 1.535435,0.821012 1.940121,0.306324 0.546968,-0.695675 -0.136175,-2.446188 -1.021128,-2.450678 z"
       id="path5519"
       inkscape:connector-curvature="0"
       sodipodi:nodetypes="aaaaaaaaaaaa" />
    <path
       style="fill:none;stroke:#000000;stroke-width:0.5;stroke-linecap:butt;stroke-linejoin:miter;stroke-miterlimit:4;stroke-dasharray:none;stroke-opacity:1;fill-opacity:1"
       d="m 30.222059,39.906227 c -1.448416,2.837424 -2.066191,10.544881 0.219997,12.979334 2.001519,2.131322 6.175492,-0.982819 8.212927,-3.079837 1.314313,-1.352748 1.825492,-3.466998 1.833226,-5.353057 0.0049,-1.082159 -0.201194,-2.380039 -1.026607,-3.079859 -2.378582,-2.016635 -7.82175,-4.24404 -9.239543,-1.466581 z m 3.666479,2.346548 c -1.561171,1.258302 -1.518115,6.421277 -0.146654,7.112962 1.908748,0.962688 4.447396,-2.889165 4.033128,-4.986416 -0.286155,-1.44874 -2.736702,-3.053279 -3.886474,-2.126546 z"
       id="path5521"
       inkscape:connector-curvature="0"
       sodipodi:nodetypes="ssaaasssas" />
    <path
       style="fill:none;stroke:#000000;stroke-width:0.5;stroke-linecap:butt;stroke-linejoin:miter;stroke-miterlimit:4;stroke-dasharray:none;stroke-opacity:1;fill-opacity:1"
       d="m 46.508187,41.37805 c -1.602723,4.050217 1.661808,11.125344 5.990169,11.613602 5.086156,0.573717 11.772315,-6.971375 9.902126,-11.735839 -0.735029,-1.872542 -4.229202,-1.705964 -5.990169,-0.733497 -2.680842,1.480457 -0.864013,8.610787 -3.911957,8.312888 -3.009913,-0.294203 0.464492,-7.372147 -2.200453,-8.801889 -1.181163,-0.633692 -3.296504,0.09836 -3.789716,1.344735 z"
       id="path5523"
       inkscape:connector-curvature="0"
       sodipodi:nodetypes="aaaaaaa" />
    <path
       style="fill:none;stroke:#000000;stroke-width:0.5;stroke-linecap:butt;stroke-linejoin:miter;stroke-miterlimit:4;stroke-dasharray:none;stroke-opacity:1;fill-opacity:1"
       d="m 77.165737,38.777644 c -2.9747,0.0088 -6.865719,-1.561931 -8.903606,0.6051 -3.059692,3.253595 -3.168271,10.165957 -0.08634,13.398589 2.407835,2.525631 7.941689,2.848184 10.459537,0.432217 0.748486,-0.718201 0.725213,-2.37026 0,-3.111924 -1.79331,-1.834073 -5.810927,1.569558 -7.693392,-0.172896 -0.637531,-0.590114 -0.869233,-1.974664 -0.259321,-2.593269 2.13193,-2.162359 6.886676,2.881712 9.076482,0.777975 0.915213,-0.879257 0.740408,-2.922226 -0.17289,-3.803479 -2.135846,-2.060881 -6.717379,1.920927 -8.903592,-0.08634 -0.447729,-0.4111 -0.580024,-1.363979 -0.172891,-1.815301 2.451272,-2.717226 8.469941,2.578269 10.978216,-0.08634 0.751531,-0.798374 0.598609,-2.505701 -0.172874,-3.284819 -0.975071,-0.984704 -2.763471,-0.263089 -4.149259,-0.259316 z"
       id="path5525"
       inkscape:connector-curvature="0"
       sodipodi:nodetypes="aaaaaaaaaaaaaa" />
    <path
       style="fill:none;stroke:#000000;stroke-width:0.5;stroke-linecap:butt;stroke-linejoin:miter;stroke-miterlimit:4;stroke-dasharray:none;stroke-opacity:1;fill-opacity:1"
       d="m 86.674414,53.559317 c 3.243672,-0.775087 -0.165231,-8.89037 3.111926,-9.508669 3.962545,-0.74762 3.724975,10.051411 7.693342,9.3358 5.039818,-0.908852 7.475188,-10.031615 5.013708,-14.522361 -0.71222,-1.299246 -3.169234,-1.967975 -4.322138,-1.037312 -2.915413,2.35354 3.824048,10.083734 0.259417,11.237536 -4.060639,1.314294 -3.005226,-10.865636 -7.261219,-10.545993 -4.857565,0.364787 -7.2025,8.335148 -6.396782,13.139272 0.148289,0.884142 1.02981,2.110075 1.901746,1.901727 z"
       id="path5527"
       inkscape:connector-curvature="0"
       sodipodi:nodetypes="aaaaaaaaa" />
    <path
       style="fill:none;stroke:#000000;stroke-width:0.5;stroke-linecap:butt;stroke-linejoin:miter;stroke-miterlimit:4;stroke-dasharray:none;stroke-opacity:1;fill-opacity:1"
       d="m 116.16912,52.403131 c -2.07341,-2.245212 0.21241,-6.782605 -1.92887,-8.963271 -1.7416,-1.773898 -6.52587,0.672892 -7.26128,-1.701905 -0.34836,-1.125168 1.26591,-2.234711 2.38255,-2.609559 5.44457,-1.827617 15.39875,-2.561203 18.38055,1.248051 1.22694,1.567401 -2.7434,3.178778 -4.65177,3.74417 -1.78617,0.529091 -4.23785,-1.880047 -5.55968,-0.56731 -2.26398,2.248934 3.37483,7.506281 0.90782,9.530579 -0.61069,0.500928 -1.73341,-0.100615 -2.26932,-0.680755 z"
       id="path5529"
       inkscape:connector-curvature="0"
       sodipodi:nodetypes="aaassaaaa" />
    <path
       style="fill:none;fill-opacity:1;stroke:#000000;stroke-width:0.5;stroke-linecap:butt;stroke-linejoin:miter;stroke-miterlimit:4;stroke-dasharray:none;stroke-opacity:1"
       d="m 131.80435,39.385361 c -2.70829,3.738906 -1.71744,10.720428 1.77868,13.735602 2.66956,2.302206 7.66249,1.790491 10.57345,-0.197626 3.75654,-2.565624 -0.14633,-11.715764 2.22992,-12.075036 4.72385,-0.714216 -1.93447,12.051369 1.47793,12.868375 0.77556,0.185664 0.94723,-1.383693 1.01475,-2.211607 0.35832,-4.394034 2.83821,-10.552075 -2.05437,-13.898403 -1.70161,-1.163831 -4.70251,-0.195383 -6.02792,1.383433 -2.46023,2.930177 2.29311,8.95096 -0.59288,11.46279 -1.14742,0.998513 -3.53239,0.739006 -4.54562,-0.39527 -2.54645,-2.850486 3.2093,-8.988164 0.29638,-11.462793 -1.07325,-0.9118 -3.32413,-0.34999 -4.15032,0.790535 z"
       id="path5533"
       inkscape:connector-curvature="0"
       sodipodi:nodetypes="aasssssaaaaa" />
    <path
       style="fill:none;stroke:#000000;stroke-width:0.5;stroke-linecap:butt;stroke-linejoin:miter;stroke-miterlimit:4;stroke-dasharray:none;stroke-opacity:1;fill-opacity:1"
       d="m 154.97182,39.053756 c -3.18915,4.129613 -3.81876,12.212598 0.10428,15.652594 1.05439,0.924454 3.25298,0.535594 4.1742,-0.521748 1.71342,-1.96737 -2.5505,-6.918564 -0.10462,-7.826292 3.1484,-1.168341 3.19154,6.994404 6.4699,7.721937 2.24839,0.498985 6.11939,-0.623087 6.26091,-2.921815 0.22964,-3.727934 -9.07496,-2.236783 -9.49579,-5.947985 -0.23833,-2.101763 3.59702,-2.568193 4.48698,-4.487079 0.35245,-0.759954 0.7372,-1.854473 0.20882,-2.504412 -1.2604,-1.549831 -3.95447,-0.856987 -5.94805,-0.730462 -2.11313,0.134126 -4.86248,-0.110679 -6.15663,1.565262 z m 2.40016,1.252205 c -0.78832,0.735782 -0.90933,2.655208 0,3.234877 1.87639,1.196276 6.45814,-0.629457 6.05223,-2.81747 -0.36898,-1.988326 -4.57413,-1.797276 -6.05223,-0.417407 z"
       id="path5535"
       inkscape:connector-curvature="0"
       sodipodi:nodetypes="aaaaaaaaaaaaaaa" />
    <path
       style="fill:none;stroke:#000000;stroke-width:0.5;stroke-linecap:butt;stroke-linejoin:miter;stroke-miterlimit:4;stroke-dasharray:none;stroke-opacity:1;fill-opacity:1"
       d="m 183.34055,37.343665 c -2.97466,0.0088 -6.86576,-1.561905 -8.90367,0.605102 -3.0596,3.253596 -3.16816,10.165963 -0.0866,13.398586 2.40772,2.525663 7.94175,2.848205 10.45955,0.43222 0.74838,-0.718197 0.72531,-2.370232 0,-3.111927 -1.79347,-1.834072 -5.81101,1.569566 -7.69334,-0.172892 -0.63766,-0.590118 -0.86929,-1.97466 -0.25946,-2.593265 2.13208,-2.162337 6.88688,2.881707 9.07664,0.777971 0.91497,-0.879239 0.74018,-2.922232 -0.17295,-3.803458 -2.13584,-2.060901 -6.7174,1.920904 -8.90369,-0.08634 -0.44767,-0.411101 -0.57989,-1.363949 -0.17278,-1.815295 2.45113,-2.717231 8.46991,2.57826 10.97819,-0.08634 0.75144,-0.798394 0.59868,-2.5057 -0.17283,-3.284814 -0.97507,-0.984713 -2.76345,-0.263108 -4.14926,-0.259335 z"
       id="path5525-0"
       inkscape:connector-curvature="0"
       sodipodi:nodetypes="aaaaaaaaaaaaaa" />
  </g>
</svg>
